<?xml version="1.0" encoding="utf-8"?>
<!-- Generator: Adobe Illustrator 28.2.0, SVG Export Plug-In . SVG Version: 6.00 Build 0)  -->
<svg version="1.1" id="Layer_1" xmlns="http://www.w3.org/2000/svg" xmlns:xlink="http://www.w3.org/1999/xlink" x="0px" y="0px"
	 viewBox="0 0 2500 2500" style="enable-background:new 0 0 2500 2500;" xml:space="preserve">
<style type="text/css">
	.st0{display:none;fill-rule:evenodd;clip-rule:evenodd;fill:#FFFFFF;}
	.st1{fill-rule:evenodd;clip-rule:evenodd;fill:#C7232F;}
</style>
<g>
	<path class="st0" d="M0,0h2500v2500H0V0z"/>
	<path class="st1" d="M1691.6,574.7c78.5-39.2,118.8-33.2,119.8,6c1,51.3-7.1,119.7-12.1,169.1c-30.2,267.7-78.5,486.1-82.5,761.8
		c129.8-336.1,237.5-567.6,377.4-854.4c44.3-91.6,73.5-74.5,109.7-91.6c141.9-63.4,146.9-24.2,127.8,54.3
		c-68.4,284.8-243.5,1185.5-270.7,1323.4c-8.1,40.3-52.3,24.1-62.4,8.1c-52.3-69.4-108.7-70.5-102.7-117.8
		c32.2-229.4,146.9-810.1,176.1-947c-152,309.9-309,699.4-389.4,918.8c-17.1,46.3-48.3,43.3-67.4,9.1
		c-28.2-49.3-80.5-73.5-88.6-129.8c-28.2-180.2,31.2-524.3,39.2-742.7c-81.5,237.5-220.4,700.4-280.8,908.7
		c-25.1,86.6-108.7,71.5-86.5-11.1c92.6-351.2,290.8-970.1,376.4-1192.5C1595,593.9,1648.3,596.9,1691.6,574.7L1691.6,574.7z
		 M1190.4,531.5c-27.2-6-105.7,36.2-154,43.3c-15.1,4-29.2,19.1-34.2,31.2C925.7,782,857.3,949.1,798.9,1100
		c-88.1,16.2-176,33.6-263.7,52.3C606.7,971.2,678.2,791.1,747.6,619c34.2-86.5-56.3-94.6-91.6-8c-45.3,111.7-130.8,322-225.4,566.6
		c-69.4,17.1-144.9,36.2-221.4,59.4c-56.4,15.1-58.4,30.2-34.2,64.4c14.1,18.1,40.3,16.1,53.3,30.2c33.2,34.2,53.3,75.5,112.7,81.5
		c-54.3,140.9-106.7,284.8-153,422.7c-30.2,87.5,55.3,105.7,87.5,13.1c52.3-147.9,107.7-297.9,165.1-449.9
		c47.3-10.1,161-34.2,266.7-58.4c-83.5,231.5-137.9,405.6-160,491.1c-4,16.1,4,24.1,7,32.2c27.2,40.3,55.4,42.3,91.6,93.6
		c9.1,14.1,42.3,21.1,54.4-13.1c72.1-219,149-436.4,230.4-652.1c31.2-8.1,87.6-21.1,121.8-71.5c60.4-90.6,77.5-72.4,93.6-99.6
		c18.1-35.2,5-66.4-59.4-59.4c0,0-24.2,2-70.5,7.1c72.4-184.2,136.9-340.1,181.1-459.9C1212.5,567.7,1214.6,537.5,1190.4,531.5
		L1190.4,531.5z"/>
	<path class="st1" d="M1119.6,1675.1c10.5-13.3,20-27,28.5-39.6c38.1-56.4,1-89.6-38.2-56.4c-5.6,5.1-11.4,10.8-17.2,16.6
		c-6.4-20.1-12.8-40.3-19.2-60.4c18-22,35.5-44.7,50.4-67.9c63.1-97.8-60.4-154-113.7-90.6c-28.2,33.2-21.1,66.4-13.1,95.6
		c2.3,8.8,6,21.3,10.5,36.5c-19.6,20.4-38.5,41.5-56.8,63.1c-61.4,70.5-44.3,161.2,20.1,181.1c38.9,12,75.5-5.5,107.3-33.5
		c1.5,4,3,7.8,4.4,11.4c17.1,42.3,70.5,29.2,49.3-22.1C1128.6,1700.3,1124.4,1688.7,1119.6,1675.1L1119.6,1675.1z M1032.3,1586.4
		c5.2,16.4,10.8,33.7,16.4,50.2c-7,5.8-14.1,11.8-21.3,15.9c-25,14.4-43.3-1-11.1-44.3C1021.6,1600.8,1027,1593.6,1032.3,1586.4
		L1032.3,1586.4z M1052.4,1463.2c-1.9-4.7-2.9-9.3-3.9-12.9c-18.1-67.4,59.2-49.4,20.1-5C1063.1,1451.5,1058,1457.7,1052.4,1463.2z"
		/>
</g>
</svg>
