<?xml version="1.0" encoding="UTF-8"?>
<svg id="Layer_1" data-name="Layer 1" xmlns="http://www.w3.org/2000/svg" viewBox="0 0 487.01 408.57">
  <defs>
    <style>
      .cls-1 {
        fill: #e7e6e6;
        stroke-width: 0px;
      }
    </style>
  </defs>
  <polygon class="cls-1" points="8.93 48.55 12.51 30.9 0 17.95 17.89 15.9 26.35 0 33.82 16.38 51.56 19.51 38.29 31.68 40.79 49.52 25.12 40.66 8.93 48.55"/>
  <polygon class="cls-1" points="429.43 84.13 431.35 74.66 424.64 67.72 434.23 66.62 438.77 58.09 442.78 66.87 452.29 68.55 445.17 75.08 446.52 84.64 438.11 79.89 429.43 84.13"/>
  <polygon class="cls-1" points="27.05 407.87 29.64 395.07 20.57 385.68 33.54 384.19 39.67 372.66 45.1 384.54 57.96 386.81 48.33 395.64 50.15 408.57 38.78 402.15 27.05 407.87"/>
  <polygon class="cls-1" points="464.16 379.78 466.07 370.31 459.37 363.37 468.96 362.27 473.49 353.74 477.5 362.53 487.01 364.2 479.9 370.73 481.24 380.29 472.83 375.54 464.16 379.78"/>
</svg>